Coordinates
version=1
nRows=19
nColumns=33
inDegrees=yes

Units are S.I. units (second, meters, Newtons, ...)
Angles are in degrees.

endheader
time	ground_thorax_rot_x	ground_thorax_rot_y	ground_thorax_rot_z	ground_thorax_tx	ground_thorax_ty	ground_thorax_tz	clav_prot_r	clav_elev_r	scapula_abduction_r	scapula_elevation_r	scapula_upward_rot_r	scapula_winging_r	shoulder_elv_r	plane_of_elev_r	axial_rot_r	elbow_flexion_r	pro_sup_r	wrist_flex_r	wrist_dev_r	clav_prot_l	clav_elev_l	scapula_abduction_l	scapula_elevation_l	scapula_upward_rot_l	scapula_winging_l	shoulder_elv_l	plane_of_elev_l	axial_rot_l	elbow_flexion_l	pro_sup_l	wrist_flex_l	wrist_dev_l	
5.6800	90.000000	-90.000000	-90.000000	78.665716	776.900933	-40.495918	-45.000000	5.969782	-44.999987	20.660062	-45.000000	-2272.436925	-1518.130715	148.581272	134.220628	0.886868	169.208900	11.558803	12.614630	22.277732	45.000000	-45.000000	-45.000000	9.473093	-3927.699625	-2418.237183	10.647929	-66.658280	349.704571	-317.986597	11.471773	-13.256772	
5.6900	90.000000	-90.000000	-90.000000	78.697702	776.657198	-40.562328	-45.000000	6.147980	-44.999976	20.725605	-45.000000	-2272.363573	-1518.114372	148.509365	134.709216	0.863597	169.000646	11.513893	12.585033	22.036310	45.000000	-45.000000	-45.000000	9.684362	-3927.772161	-2418.293524	10.610752	-67.093010	349.757657	-317.723010	11.458832	-13.352927	
5.7000	90.000000	-90.000000	-90.000000	78.659079	776.418484	-40.620542	-45.000000	6.514684	-44.999958	20.822333	-45.000000	-2272.349976	-1518.150729	148.372221	135.142385	0.909993	168.808981	11.604351	12.522804	21.699841	45.000000	-45.000000	-45.000000	9.907047	-3927.789601	-2418.361402	10.632914	-67.652662	349.824885	-317.495810	11.570796	-13.537967	
5.7100	90.000000	-90.000000	-90.000000	78.458190	776.200619	-40.661848	-45.000000	6.669129	-44.999925	20.861968	-45.000000	-2272.291782	-1518.117621	148.293209	135.564347	0.934006	168.756773	11.633258	12.479069	21.502874	45.000000	-45.000000	-45.000000	10.079674	-3927.861166	-2418.381516	10.633147	-67.998266	349.870155	-317.361903	11.597784	-13.640872	
5.7200	90.000000	-90.000000	-90.000000	78.093515	775.997277	-40.686659	-45.000000	6.748677	-44.999865	20.883233	-45.000000	-2272.203016	-1518.059869	148.239662	135.973013	0.960602	168.813546	11.666549	12.420061	21.351265	45.000000	-45.000000	-45.000000	10.241771	-3927.960229	-2418.385210	10.623384	-68.262788	349.910634	-317.306957	11.602421	-13.722130	
5.7300	90.000000	-90.000000	-90.000000	77.549806	775.805309	-40.695074	-45.000000	6.783369	-44.999758	20.887801	-45.000000	-2272.113274	-1517.986273	148.180238	136.357827	0.998392	168.970490	11.707410	12.377389	21.229499	45.000000	-45.000000	-45.000000	10.380519	-3928.061448	-2418.361270	10.629203	-68.474809	349.949527	-317.323940	11.610030	-13.787227	
5.7400	90.000000	-90.000000	-90.000000	76.834913	775.618035	-40.690704	-45.000000	6.779908	-44.999566	20.892413	-45.000000	-2271.994493	-1517.905283	148.130574	136.747343	1.038805	169.204793	11.751539	12.322522	21.112852	45.000000	-45.000000	-45.000000	10.516010	-3928.179186	-2418.328242	10.627034	-68.675428	349.978916	-317.388272	11.605707	-13.837926	
5.7500	90.000000	-90.000000	-90.000000	75.965191	775.428499	-40.679413	-45.000000	6.800076	-44.999223	20.902284	-45.000000	-2271.883489	-1517.830048	148.054399	137.132558	1.089877	169.477885	11.811906	12.275289	20.971660	45.000000	-45.000000	-45.000000	10.647374	-3928.290250	-2418.288906	10.639076	-68.914195	349.998327	-317.472647	11.632024	-13.893234	
5.7600	90.000000	-90.000000	-90.000000	74.955047	775.232794	-40.668151	-45.000000	6.792969	-44.998608	20.913652	-45.000000	-2271.734503	-1517.742801	147.996438	137.547616	1.129526	169.772387	11.863379	12.206660	20.824475	45.000000	-45.000000	-45.000000	10.791758	-3928.428979	-2418.255482	10.626108	-69.165938	349.999792	-317.557699	11.642465	-13.936505	
5.7700	90.000000	-90.000000	-90.000000	73.817773	775.028225	-40.665133	-45.000000	6.798417	-44.997507	20.919899	-45.000000	-2271.596624	-1517.647454	147.916388	137.977478	1.170046	170.060318	11.923313	12.145435	20.665405	45.000000	-45.000000	-45.000000	10.933561	-3928.568230	-2418.218338	10.622029	-69.442190	349.987943	-317.632274	11.680110	-13.982207	
5.7800	90.000000	-90.000000	-90.000000	72.566354	774.813438	-40.678942	-45.000000	6.794858	-44.995535	20.928918	-45.000000	-2271.430642	-1517.542237	147.850356	138.448709	1.205902	170.328699	11.986772	12.062476	20.498033	45.000000	-45.000000	-45.000000	11.087876	-3928.728818	-2418.187835	10.600983	-69.738201	349.966167	-317.692056	11.707909	-14.025917	
5.7900	90.000000	-90.000000	-90.000000	71.214394	774.587070	-40.719528	-45.000000	6.805610	-44.991999	20.934838	-45.000000	-2271.281127	-1517.432516	147.761260	138.955015	1.246447	170.557029	12.058165	11.975953	20.322825	45.000000	-45.000000	-45.000000	11.252442	-3928.892974	-2418.159320	10.585423	-70.047634	349.949596	-317.738088	11.756604	-14.076652	
5.8000	90.000000	-90.000000	-90.000000	69.770870	774.349584	-40.792302	-45.000000	6.811343	-44.985674	20.947330	-45.000000	-2271.106487	-1517.322495	147.688594	139.510513	1.288212	170.735295	12.125242	11.882751	20.140524	45.000000	-45.000000	-45.000000	11.429012	-3929.065984	-2418.127929	10.559979	-70.377020	349.941800	-317.772807	11.778798	-14.122696	
5.8100	90.000000	-90.000000	-90.000000	68.235065	774.104757	-40.893525	-45.000000	6.819561	-44.974320	20.953504	-45.000000	-2270.966882	-1517.212447	147.583355	140.093675	1.338545	170.852050	12.193822	11.801113	19.950103	45.000000	-45.000000	-45.000000	11.602306	-3929.223287	-2418.083879	10.556194	-70.721617	349.945503	-317.800762	11.816891	-14.170141	
5.8200	90.000000	-90.000000	-90.000000	66.588618	773.862861	-41.001722	-45.000000	6.802443	-44.954051	20.959970	-45.000000	-2270.816942	-1517.102292	147.489678	140.691232	1.393272	170.921033	12.252104	11.725961	19.749534	45.000000	-45.000000	-45.000000	11.771737	-3929.377942	-2418.029640	10.555611	-71.090811	349.948279	-317.824910	11.836658	-14.209598	
5.8300	90.000000	-90.000000	-90.000000	64.801580	773.638618	-41.083894	-45.000000	6.758142	-44.917548	20.944585	-45.000000	-2270.695524	-1516.976427	147.379361	141.261649	1.445714	170.970322	12.307202	11.653852	19.536022	45.000000	-45.000000	-45.000000	11.949265	-3929.531806	-2417.978357	10.560084	-71.470532	349.948436	-317.849136	11.883145	-14.255479	
5.8400	90.000000	-90.000000	-90.000000	62.837087	773.449438	-41.100019	-45.000000	6.656617	-44.852706	20.907938	-45.000000	-2270.553574	-1516.829515	147.296457	141.789065	1.475356	171.055305	12.351402	11.605542	19.304481	45.000000	-45.000000	-45.000000	12.125490	-3929.687170	-2417.923919	10.558477	-71.877287	349.942227	-317.875094	11.914964	-14.296556	
5.8500	90.000000	-90.000000	-90.000000	60.668402	773.309216	-41.020411	-45.000000	6.501697	-44.735034	20.826391	-45.000000	-2270.448462	-1516.659369	147.206215	142.245722	1.476030	171.228059	12.396531	11.576877	19.050491	45.000000	-45.000000	-45.000000	12.307363	-3929.838543	-2417.872333	10.558834	-72.299312	349.938852	-317.906317	11.969832	-14.344240	
5.8600	90.000000	-90.000000	-90.000000	58.288418	773.224839	-40.834719	-45.000000	6.287478	-44.553993	20.711985	-45.000000	-2270.336665	-1516.476042	147.148964	142.645800	1.445786	171.536064	12.440885	11.575467	18.771426	45.000000	-45.000000	-45.000000	12.486322	-3929.986542	-2417.816564	10.554216	-72.751700	349.941195	-317.944451	12.005984	-14.388321	
